<?xml version="1.0" encoding="utf-8"?>
<!-- Generator: Adobe Illustrator 23.0.4, SVG Export Plug-In . SVG Version: 6.00 Build 0)  -->
<svg version="1.1" id="Layer_1" xmlns="http://www.w3.org/2000/svg" xmlns:xlink="http://www.w3.org/1999/xlink" x="0px" y="0px"
	 viewBox="0 0 15 15" style="enable-background:new 0 0 15 15;" xml:space="preserve">
<style type="text/css">
	.st0{fill:#E7F1E9;}
</style>
<path class="st0" d="M14.5,5.366v4.266c0,0.196-0.101,0.392-0.265,0.501l-6.398,4.266c-0.22,0.136-0.453,0.134-0.672,0l-6.398-4.266
	C0.601,10.023,0.5,9.827,0.5,9.632V5.366c0-0.194,0.101-0.39,0.265-0.499l6.398-4.266c0.22-0.136,0.453-0.134,0.672,0l6.398,4.266
	C14.399,4.976,14.5,5.172,14.5,5.366z M1.703,8.508l1.508-1.009L1.703,6.492V8.508z M2.187,5.366l2.101,1.407l2.61-1.742V2.226
	L2.187,5.366z M6.898,9.969l-2.61-1.743L2.187,9.632l4.711,3.142V9.969z M9.625,7.499L7.5,6.077L5.375,7.499L7.5,8.921L9.625,7.499z
	 M8.102,5.031l2.61,1.742l2.101-1.407l-4.711-3.14V5.031z M12.813,9.632l-2.101-1.406l-2.61,1.743v2.805L12.813,9.632z
	 M13.297,6.492l-1.508,1.007l1.508,1.009V6.492z"/>
<path class="st0" d="M14.75,5.29v4.418c0,0.203-0.105,0.406-0.275,0.519l-6.627,4.418c-0.228,0.14-0.47,0.139-0.696,0l-6.627-4.418
	C0.355,10.114,0.25,9.911,0.25,9.708V5.29c0-0.201,0.105-0.404,0.275-0.517l6.627-4.418c0.228-0.14,0.47-0.139,0.696,0l6.627,4.418
	C14.645,4.886,14.75,5.089,14.75,5.29z M1.496,8.544l1.562-1.045L1.496,6.456V8.544z M1.998,5.29l2.177,1.457l2.703-1.804V2.038
	L1.998,5.29z M6.877,10.057L4.174,8.252L1.998,9.708l4.879,3.254V10.057z M9.701,7.499L7.5,6.026L5.299,7.499L7.5,8.971L9.701,7.499
	z M8.123,4.943l2.703,1.804l2.177-1.457L8.123,2.038V4.943z M13.002,9.708l-2.177-1.456l-2.703,1.805v2.905L13.002,9.708z
	 M13.504,6.456l-1.562,1.043l1.562,1.045V6.456z"/>
</svg>
