<?xml version="1.0" encoding="utf-8"?>
<!-- Generator: Adobe Illustrator 23.0.4, SVG Export Plug-In . SVG Version: 6.00 Build 0)  -->
<svg version="1.1" id="Layer_1" xmlns="http://www.w3.org/2000/svg" xmlns:xlink="http://www.w3.org/1999/xlink" x="0px" y="0px"
	 viewBox="0 0 15 15" style="enable-background:new 0 0 15 15;" xml:space="preserve">
<style type="text/css">
	.st0{fill:#E7F1E9;}
</style>
<path class="st0" d="M14.789,7.5c0,4.019-3.27,7.289-7.289,7.289S0.211,11.519,0.211,7.5S3.481,0.211,7.5,0.211
	S14.789,3.481,14.789,7.5z M2.874,11.672c1.009-1.727,3.055-3.549,5.307-4.184C8.024,7.136,7.854,6.781,7.676,6.433
	C4.567,7.364,1.549,7.325,1.277,7.32C1.275,7.382,1.274,7.446,1.274,7.51C1.274,9.108,1.88,10.568,2.874,11.672z M1.405,6.235
	C1.684,6.237,4.249,6.25,7.161,5.476C6.13,3.641,5.017,2.1,4.853,1.875C3.111,2.697,1.809,4.302,1.405,6.235z M9.932,13.24
	c-0.092-0.546-0.454-2.449-1.328-4.72c-2.511,0.855-4.275,2.572-4.926,3.902C5.523,13.86,7.93,14.094,9.932,13.24z M6.041,1.456
	c0.172,0.23,1.303,1.771,2.323,3.645c2.214-0.829,3.151-2.089,3.263-2.249C10.096,1.493,8.016,0.981,6.041,1.456z M8.843,6.027
	C9.061,6.475,9.221,6.837,9.39,7.25c2.072-0.261,4.13,0.157,4.335,0.2c-0.014-1.468-0.539-2.818-1.406-3.877
	C12.188,3.75,11.145,5.087,8.843,6.027z M13.647,8.498C13.434,8.431,11.72,7.92,9.769,8.231c0.814,2.239,1.146,4.061,1.209,4.439
	C12.375,11.726,13.37,10.23,13.647,8.498z"/>
</svg>
