<?xml version="1.0" encoding="utf-8"?>
<!-- Generator: Adobe Illustrator 23.0.4, SVG Export Plug-In . SVG Version: 6.00 Build 0)  -->
<svg version="1.1" id="Layer_1" xmlns="http://www.w3.org/2000/svg" xmlns:xlink="http://www.w3.org/1999/xlink" x="0px" y="0px"
	 viewBox="0 0 15 15" style="enable-background:new 0 0 15 15;" xml:space="preserve">
<style type="text/css">
	.st0{fill:#E7F1E9;}
	.st1{fill:#FFFFFF;stroke:#000000;stroke-linecap:round;stroke-miterlimit:10;}
	.st2{fill:#FFFFFF;stroke:#000000;stroke-width:2;stroke-linecap:round;stroke-miterlimit:10;}
	.st3{fill:#A75BFF;}
</style>
<g>
	<path class="st3" d="M14.75,1.803v11.393c0,0.858-0.696,1.554-1.554,1.554H1.804c-0.858,0-1.554-0.696-1.554-1.554V1.803
		c0-0.858,0.696-1.554,1.554-1.554h11.393C14.054,0.25,14.75,0.946,14.75,1.803z M7.5,8.536c0.469,0.007,1.144-0.591,1.483-0.837
		c2.936-2.131,2.905-2.136,3.695-2.75V4.134c0-0.429-0.348-0.777-0.777-0.777H3.098c-0.429,0-0.777,0.348-0.777,0.777v0.815
		c0.788,0.614,0.758,0.619,3.692,2.75C6.354,7.946,7.031,8.542,7.5,8.536z M9.593,8.534C9.151,8.858,8.368,9.575,7.5,9.571
		C6.634,9.575,5.863,8.87,5.406,8.534C3.4,7.079,2.772,6.611,2.321,6.263v4.603c0,0.429,0.348,0.777,0.777,0.777h8.804
		c0.429,0,0.777-0.348,0.777-0.777V6.263C12.225,6.611,11.6,7.079,9.593,8.534z"/>
</g>
</svg>
