<?xml version="1.0" encoding="utf-8"?>
<!-- Generator: Adobe Illustrator 23.0.4, SVG Export Plug-In . SVG Version: 6.00 Build 0)  -->
<svg version="1.1" id="Layer_1" xmlns="http://www.w3.org/2000/svg" xmlns:xlink="http://www.w3.org/1999/xlink" x="0px" y="0px"
	 viewBox="0 0 15 15" style="enable-background:new 0 0 15 15;" xml:space="preserve">
<style type="text/css">
	.st0{fill:#E7F1E9;}
</style>
<path class="st0" d="M14.789,7.564c0,3.259-1.993,6.049-4.932,7.025c-0.374,0.067-0.509-0.165-0.509-0.356
	c0-0.24,0.009-1.466,0.009-2.457c0-0.691-0.23-1.132-0.5-1.364c1.643-0.184,3.374-0.411,3.374-3.248c0-0.805-0.288-1.21-0.758-1.73
	c0.076-0.191,0.326-0.976-0.077-1.995c-0.614-0.195-2.028,0.794-2.028,0.794c-0.588-0.165-1.22-0.25-1.846-0.25
	c-0.626,0-1.258,0.085-1.846,0.25c0,0-1.414-0.985-2.028-0.794C3.247,4.455,3.497,5.242,3.573,5.434
	c-0.47,0.518-0.694,0.922-0.694,1.73c0,2.829,1.658,3.067,3.301,3.248c-0.212,0.195-0.403,0.522-0.47,0.992
	c-0.421,0.193-1.499,0.519-2.143-0.615c-0.403-0.701-1.135-0.759-1.135-0.759c-0.72-0.007-0.047,0.453-0.047,0.453
	c0.482,0.22,0.817,1.075,0.817,1.075c0.432,1.318,2.49,0.877,2.49,0.877c0,0.617,0.009,1.621,0.009,1.805
	c0,0.191-0.132,0.423-0.508,0.355c-2.931-0.982-4.982-3.772-4.982-7.031c0-4.077,3.119-7.172,7.195-7.172
	C11.483,0.393,14.789,3.488,14.789,7.564z M2.877,10.272c0.059,0.029,0.088,0.076,0.067,0.114c-0.021,0.04-0.08,0.05-0.126,0.021
	c-0.059-0.029-0.088-0.076-0.068-0.115C2.771,10.262,2.818,10.254,2.877,10.272z M3.22,10.559c0.05,0.056,0.059,0.125,0.021,0.154
	c-0.039,0.037-0.106,0.017-0.153-0.029c-0.05-0.056-0.059-0.125-0.02-0.154C3.106,10.493,3.173,10.512,3.22,10.559z M3.532,10.965
	c0.047,0.067,0.047,0.145,0,0.181c-0.038,0.029-0.118,0-0.165-0.066c-0.047-0.069-0.047-0.145,0-0.174
	C3.414,10.867,3.491,10.897,3.532,10.965z M3.893,11.367c0.059,0.056,0.077,0.145,0.039,0.184c-0.039,0.047-0.124,0.037-0.191-0.029
	c-0.068-0.056-0.085-0.145-0.039-0.184C3.741,11.291,3.829,11.301,3.893,11.367z M4.355,11.639c0.088,0.026,0.144,0.093,0.126,0.152
	c-0.017,0.059-0.105,0.088-0.182,0.059c-0.088-0.017-0.147-0.086-0.127-0.145C4.193,11.646,4.278,11.617,4.355,11.639z
	 M4.934,11.944c-0.097,0.009-0.165-0.038-0.165-0.107c0-0.059,0.067-0.105,0.152-0.105c0.088-0.009,0.165,0.039,0.165,0.105
	C5.087,11.896,5.019,11.944,4.934,11.944z M5.645,11.742c0.009,0.059-0.05,0.114-0.135,0.135c-0.088,0.02-0.164-0.017-0.173-0.076
	c-0.009-0.069,0.05-0.125,0.135-0.145C5.557,11.646,5.637,11.685,5.645,11.742z"/>
</svg>
