<?xml version="1.0" encoding="utf-8"?>
<!-- Generator: Adobe Illustrator 23.0.4, SVG Export Plug-In . SVG Version: 6.00 Build 0)  -->
<svg version="1.1" id="Layer_1" xmlns="http://www.w3.org/2000/svg" xmlns:xlink="http://www.w3.org/1999/xlink" x="0px" y="0px"
	 viewBox="0 0 15 15" style="enable-background:new 0 0 15 15;" xml:space="preserve">
<style type="text/css">
	.st0{fill:#E7F1E9;}
	.st1{fill:#FFFFFF;stroke:#000000;stroke-linecap:round;stroke-miterlimit:10;}
	.st2{fill:#FFFFFF;stroke:#000000;stroke-width:2;stroke-linecap:round;stroke-miterlimit:10;}
	.st3{fill:#A75BFF;}
</style>
<g>
	<path class="st3" d="M14.75,1.295v12.41c0,0.576-0.467,1.045-1.036,1.045H1.282c-0.57,0-1.032-0.469-1.032-1.045V1.295
		c0-0.576,0.461-1.045,1.032-1.045h12.433C14.283,0.25,14.75,0.719,14.75,1.295z M4.803,3.567c0-0.686-0.56-1.246-1.246-1.246
		c-0.689,0-1.246,0.56-1.246,1.246s0.557,1.246,1.246,1.246C4.247,4.813,4.803,4.256,4.803,3.567z M4.636,12.678v-6.92H2.483v6.92
		h2.148H4.636z M12.687,8.885c0-1.864-0.405-3.299-2.578-3.299c-1.047,0-1.748,0.574-2.036,1.117h-0.03V5.759H5.981v6.92h2.15V9.254
		c0-0.904,0.17-1.777,1.291-1.777c1.1,0,1.117,1.033,1.117,1.835v3.366h2.148V8.885z"/>
</g>
</svg>
