<?xml version="1.0" encoding="utf-8"?>
<!-- Generator: Adobe Illustrator 23.0.4, SVG Export Plug-In . SVG Version: 6.00 Build 0)  -->
<svg version="1.1" id="Layer_1" xmlns="http://www.w3.org/2000/svg" xmlns:xlink="http://www.w3.org/1999/xlink" x="0px" y="0px"
	 viewBox="0 0 15 15" style="enable-background:new 0 0 15 15;" xml:space="preserve">
<style type="text/css">
	.st0{fill:#E7F1E9;}
</style>
<path class="st0" d="M0.915,2.497c0-0.872,0.708-1.581,1.581-1.581c0.873,0,1.582,0.709,1.582,1.581
	c0,0.873-0.708,1.597-1.582,1.597C1.623,4.094,0.915,3.37,0.915,2.497z M1.132,14.084V5.292h2.73v8.792H1.132z M11.357,14.084v-4.28
	c0-1.019-0.02-2.327-1.419-2.327c-1.419,0-1.637,1.107-1.637,2.253v4.354H5.573V5.292h2.619v1.2H8.23
	c0.364-0.691,1.255-1.421,2.583-1.421c2.763,0,3.272,1.82,3.272,4.184v4.829h-0.003H11.357z"/>
</svg>
