<?xml version="1.0" encoding="utf-8"?>
<!-- Generator: Adobe Illustrator 23.0.4, SVG Export Plug-In . SVG Version: 6.00 Build 0)  -->
<svg version="1.1" id="Layer_1" xmlns="http://www.w3.org/2000/svg" xmlns:xlink="http://www.w3.org/1999/xlink" x="0px" y="0px"
	 viewBox="0 0 15 15" style="enable-background:new 0 0 15 15;" xml:space="preserve">
<style type="text/css">
	.st0{fill:#E7F1E9;}
	.st1{fill:#FFFFFF;stroke:#000000;stroke-linecap:round;stroke-miterlimit:10;}
	.st2{fill:#FFFFFF;stroke:#000000;stroke-width:2;stroke-linecap:round;stroke-miterlimit:10;}
	.st3{fill:#A75BFF;}
</style>
<g>
	<path class="st0" d="M13.75,6.5H1.25c-0.553,0-1,0.447-1,1s0.447,1,1,1h12.5c0.553,0,1-0.447,1-1S14.303,6.5,13.75,6.5z"/>
	<path class="st0" d="M1.25,3.5h12.5c0.553,0,1-0.447,1-1s-0.447-1-1-1H1.25c-0.553,0-1,0.447-1,1S0.697,3.5,1.25,3.5z"/>
	<path class="st0" d="M6.343,11.5H1.25c-0.553,0-1,0.447-1,1s0.447,1,1,1h5.093c0.553,0,1-0.447,1-1S6.896,11.5,6.343,11.5z"/>
</g>
</svg>
